PathFileType	4	(X/Y/Z)	statics_05.trc	
DataRate	CameraRate	NumFrames	NumMarkers	Units	OrigDataRate	OrigDataStartFrame	OrigNumFrames	
150.00	150.00	5	26	mm	150.00	181	720	
Frame#	Time	FT1			FT2			FT3			FT4			FT5			DP2			DP3			DP4			DP5			PP2			PP3			PP4			PP5			IP			MP1			MP2			MP3			MP4			MP5			CMC1			CMC2			CMC5			RS			US			EM			EL			
		X1	Y1	Z1	X2	Y2	Z2	X3	Y3	Z3	X4	Y4	Z4	X5	Y5	Z5	X6	Y6	Z6	X7	Y7	Z7	X8	Y8	Z8	X9	Y9	Z9	X10	Y10	Z10	X11	Y11	Z11	X12	Y12	Z12	X13	Y13	Z13	X14	Y14	Z14	X15	Y15	Z15	X16	Y16	Z16	X17	Y17	Z17	X18	Y18	Z18	X19	Y19	Z19	X20	Y20	Z20	X21	Y21	Z21	X22	Y22	Z22	X23	Y23	Z23	X24	Y24	Z24	X25	Y25	Z25	X26	Y26	Z26	

181	1.2	411.6448921478921	138.24814705158522	-177.0853484769448	433.14521280961543	136.04433297251575	-275.60309498675366	470.8627472313761	135.20261092809108	-297.3668336234353	501.2421875645269	130.83590934713885	-296.7205703578852	538.194515887244	131.35116864348242	-280.58023303829015	440.2460924308003	147.3991549622968	-259.2573113440298	475.0721659447512	145.55247955855936	-279.9742557356883	508.0306392502768	140.16996470168098	-279.6382050483655	543.4615557145498	136.4788135661256	-262.9672208389588	451.2407679611195	161.0851719575748	-236.3566425433309	480.7309864465292	162.12745475502092	-252.29365750876627	512.0542108668794	155.57501381090313	-252.78888316184134	545.8014636007906	142.72265535967628	-243.19300768906805	429.7201014505544	138.3830621312637	-162.21773911781443	451.15819090022336	144.94320258965394	-140.20231896462624	473.17649718866784	170.55546866911644	-194.39377875351073	500.5218118376838	172.12685203232596	-205.28211339484528	520.7418192263558	163.14942763208072	-207.48781894226605	542.7391764546852	149.689151952595	-209.9111922945196	484.4858644497767	147.4234602095505	-119.77972880622696	501.94552940529275	172.92355909026404	-158.90590190897805	538.9005876141418	162.86118168500118	-173.3780872887795	524.7009422458241	166.63209432374344	-99.7489124663605	566.4810004358698	166.0239619372438	-127.97797239738392	673.7992046991014	42.86313542835962	104.65457233943815	727.0384891855282	93.39625731395749	79.55453533392144	
182	1.20667	411.62099729743016	138.2218925204392	-177.11154286047798	433.1158381494979	136.03388659642494	-275.6251029078035	470.83094455910225	135.1931712464092	-297.3884475914725	501.2111994464441	130.82012767257226	-296.7402829055424	538.1663099757019	131.33926525593733	-280.6022793128858	440.2188661360424	147.3864237587695	-259.2786235498419	475.04267366694927	145.5398506967716	-279.99414121122066	508.0005161167603	140.15403464454207	-279.6584697877056	543.4321436397971	136.46537688666	-262.9895744441666	451.21483150536966	161.07081311936835	-236.375827312964	480.7027750161743	162.11517209801838	-252.31375911294606	512.0267628909255	155.5606677828995	-252.8087590023404	545.7718215371915	142.7085710204897	-243.21535995264534	429.69371745963775	138.35796888445944	-162.2439978952058	451.1316623426594	144.91966599930797	-140.22506038613875	473.1522753271521	170.54203127101576	-194.4131517301067	500.4940521016241	172.1091695592536	-205.30098020845486	520.714148803088	163.13342713327668	-207.50863893514708	542.7119997551997	149.67475726139787	-209.93217838068128	484.45499174788307	147.4052518081451	-119.80167036347476	501.9197407958332	172.9088591268868	-158.92577627483044	538.874350995402	162.8462345859999	-173.39897341441895	524.6763129761171	166.61548301351922	-99.77125146471391	566.4576892918939	166.0101343992286	-127.99982777985241	673.7790957764482	42.855879384443135	104.63293788739483	727.0160117626579	93.38393627865109	79.52965606298888	
183	1.21333	411.598307968293	138.2008806678018	-177.13729341858368	433.0870932057472	136.0268438735085	-275.6478601310143	470.8010188437761	135.18519197651108	-297.41075446671124	501.1823643359627	130.80654603812283	-296.7606116344059	538.1394140301882	131.32777518693356	-280.625215519666	440.19241166344625	147.3778503993444	-259.3008848437867	475.0144766498806	145.52926456278567	-280.0148232037206	507.97192186589217	140.13952190103578	-279.679113367019	543.4047848842874	136.452819269461	-263.0126189590257	451.191120011455	161.0593501079223	-236.395376725079	480.67653945774816	162.10502977829816	-252.33433625582757	512.0010137106085	155.5477384582152	-252.82902054051712	545.7436203243415	142.69461088656405	-243.2385859851369	429.66744309259843	138.3383092436757	-162.27034723095406	451.10592014665264	144.90068541040117	-140.2477397048049	473.1303493778199	170.5312390626459	-194.43299003694577	500.46753019533224	172.0933674154209	-205.32175756174414	520.6887852331208	163.1187111992688	-207.5300504267502	542.6865301169225	149.66142662782383	-209.95398384014973	484.42555819205717	147.3901197663069	-119.8239419163334	501.8958003909669	172.89602983127597	-158.94646098271065	538.8495944007185	162.83202249307033	-173.42044521636998	524.653090345667	166.6007781724827	-99.79465664427228	566.4362261155047	165.9973267675813	-128.02233443681843	673.7572332118376	42.84820940993995	104.61175712771725	726.9923635098335	93.37084815563482	79.50528049902161	
184	1.22	411.57654372128695	138.1860225162702	-177.16184768040014	433.05887396786346	136.0232353692799	-275.67091282782354	470.7728745402223	135.17793897955417	-297.4334462402536	501.1554038322843	130.79393168279603	-296.7813650350912	538.1134981864307	131.31567591783462	-280.64881342597675	440.1667385072001	147.37322124066694	-259.3236432054742	474.98748763551555	145.52013332150148	-280.03615440956946	507.94461696036876	140.1251176327693	-279.7000011641985	543.3794172102877	136.44013842173683	-263.0361720207641	451.1695545172903	161.05088776075561	-236.41511538475265	480.652332407991	162.09657401915103	-252.35539719981097	511.97676842707165	155.53547788476556	-252.84971739425507	545.7167889289437	142.68004223268127	-243.2626447507748	429.64161817234526	138.32477945882204	-162.29608612654462	451.0813224627879	144.88696921561896	-140.27005651727447	473.11050220304054	170.52317420076096	-194.45340929696022	500.44241296717513	172.07965591681045	-205.34471764409702	520.6658564446236	163.10494715238124	-207.552225102115	542.662655256234	149.64854612616895	-209.97666664171555	484.3980013012002	147.3788618046075	-119.84637651408714	501.8739225976957	172.88538875911016	-158.9681510157531	538.8265411936602	162.81837923799628	-173.44257400867988	524.6316883987338	166.58849439162867	-99.8190434947072	566.4168696870585	165.9855459610139	-128.04552971799592	673.7336674643683	42.84006728831542	104.59111419207782	726.968128208941	93.35682722637002	79.48143573952123	
185	1.22667	411.55538881803545	138.1778373126698	-177.18465459475127	433.0311707493373	136.02285335794005	-275.6938232100325	470.7463477528501	135.17103485005782	-297.45630219162734	501.12994007067226	130.78130144165934	-296.80240418896847	538.0882357065016	131.30239405079965	-280.6728392136158	440.14188908685094	147.37201471127602	-259.3464748608636	474.9616432194167	145.51214033264012	-280.0579928929771	507.9183271005463	140.10986090100707	-279.7210907000518	543.3557838638527	136.42666792280485	-263.0600676210244	451.1498358742994	161.04526689281568	-236.43490346161468	480.63005604463405	162.08952629779085	-252.376904880787	511.95377459225983	155.5233312981991	-252.87087104669038	545.6911872931389	142.66455827906938	-243.28750532264309	429.6164690857303	138.31772949971761	-162.32063240310802	451.0582032440666	144.87879785006524	-140.2918470378811	473.0922962096722	170.51782178695743	-194.4744406174146	500.41869671834235	172.06827470589425	-205.36978922474515	520.6452437910809	163.09192658971193	-207.57524519251547	542.6401605453975	149.6357535611479	-210.00019357318476	484.3727362993852	147.37179914767083	-119.86878403396003	501.8540930420706	172.87709460667836	-158.99097939190705	538.8052698235315	162.80531198823962	-173.46533051462512	524.612264482505	166.57897551373145	-99.84425547447697	566.3996680043886	165.9748570719587	-128.06939829371427	673.7085811888902	42.831605493452884	104.57105569561044	726.943850692967	93.3419194106842	79.4581392374997	
